<?xml version="1.0" standalone="no"?>
<!DOCTYPE svg PUBLIC "-//W3C//DTD SVG 20010904//EN"
 "http://www.w3.org/TR/2001/REC-SVG-20010904/DTD/svg10.dtd">
<svg version="1.0" xmlns="http://www.w3.org/2000/svg"
 width="300.000000pt" height="300.000000pt" viewBox="0 0 300.000000 300.000000"
 preserveAspectRatio="xMidYMid meet">
<metadata>
Created by potrace 1.14, written by Peter Selinger 2001-2017
</metadata>
<g transform="translate(0.000000,300.000000) scale(0.100000,-0.100000)"
fill="#000000" stroke="none">
<path d="M670 2986 c-6 -8 -22 -45 -35 -81 -12 -36 -25 -69 -29 -72 -3 -4 -6
-12 -6 -19 0 -7 -5 -25 -11 -41 -6 -15 -11 -30 -11 -33 -1 -3 -16 -42 -34 -87
-18 -46 -30 -83 -28 -83 3 0 0 -9 -6 -20 -9 -17 -21 -20 -85 -20 -109 0 -109
0 -110 -202 -1 -90 3 -175 8 -191 10 -31 36 -40 114 -40 47 0 53 -3 54 -21 0
-12 2 -30 3 -41 2 -11 7 -56 11 -100 4 -44 9 -89 12 -100 2 -11 5 -41 6 -67 1
-27 4 -48 7 -48 3 0 5 -15 6 -32 0 -29 6 -88 20 -203 2 -16 6 -52 9 -79 2 -27
7 -65 9 -85 5 -34 9 -70 21 -191 4 -30 8 -66 10 -80 3 -23 14 -122 20 -180 1
-14 6 -52 10 -85 7 -62 11 -96 19 -180 5 -51 13 -117 23 -190 2 -22 6 -59 8
-82 4 -40 8 -81 21 -188 3 -27 7 -62 8 -78 2 -15 11 -36 21 -47 18 -20 33 -20
764 -20 595 1 749 3 763 14 18 13 23 32 33 139 3 37 8 77 10 87 2 10 7 50 10
87 4 37 8 79 10 93 1 14 6 54 9 90 4 36 9 76 11 90 2 14 6 54 9 90 4 36 8 76
10 90 3 14 7 52 11 85 3 33 9 80 12 105 3 25 6 61 8 80 2 19 4 35 5 35 1 0 3
18 4 40 2 22 6 64 10 93 3 28 8 76 11 105 3 28 8 75 12 102 3 28 7 61 8 75 1
14 5 48 9 75 4 28 9 77 12 110 3 33 8 74 10 90 2 17 7 57 10 90 7 75 11 110
14 110 2 0 6 46 9 96 1 25 3 26 59 26 75 0 99 8 109 41 13 41 9 343 -6 370
-11 20 -19 22 -89 22 l-78 0 -19 58 c-10 31 -22 64 -26 72 -10 20 -21 52 -25
68 -1 8 -6 21 -10 30 -4 9 -8 22 -10 27 -16 57 -68 183 -81 197 -15 17 -60 18
-833 18 -701 0 -819 -2 -830 -14z"/>
</g>
</svg>
